<svg xmlns="http://www.w3.org/2000/svg" xmlns:xlink="http://www.w3.org/1999/xlink" width="36" height="36" viewBox="0 0 36 36">
    <defs>
        <path id="a" d="M32.95 30.656c.039.43 0 .781-.117 1.055a2.439 2.439 0 0 1-.381.644c-.137.157-.352.313-.645.47-.293.155-.683.234-1.172.234H5.06c-.351 0-.659-.054-.923-.162a1.77 1.77 0 0 1-.659-.454 1.803 1.803 0 0 1-.41-.776 2.61 2.61 0 0 1-.03-1.04l2.257-14.795c.097-.918.527-1.719 1.289-2.402.761-.684 1.62-1.026 2.578-1.026h2.256v-2.49c0-.957.166-1.855.498-2.695a6.868 6.868 0 0 1 1.377-2.198 6.463 6.463 0 0 1 2.08-1.479c.8-.361 1.68-.542 2.636-.542.957 0 1.836.18 2.637.542.8.361 1.49.854 2.066 1.48a6.797 6.797 0 0 1 1.347 2.197c.322.84.484 1.738.484 2.695v2.49h2.08c.957 0 1.816.342 2.578 1.026.761.683 1.191 1.504 1.289 2.46l2.46 14.766zM13.292 9.914v2.49h9.375v-2.49c0-1.387-.43-2.573-1.29-3.56-.859-.986-1.982-1.479-3.369-1.479-1.386 0-2.52.493-3.398 1.48-.879.986-1.318 2.172-1.318 3.56zm17.431 21.24c.137 0 .235-.029.293-.088.059-.058.078-.117.059-.175l-2.432-14.737a2.046 2.046 0 0 0-.688-1.333c-.4-.361-.845-.542-1.333-.542h-2.08v2.139c.273.176.498.405.673.688.176.284.264.591.264.923 0 .528-.18.972-.542 1.333a1.812 1.812 0 0 1-1.333.542c-.527 0-.972-.18-1.333-.542a1.812 1.812 0 0 1-.542-1.333c0-.332.088-.64.264-.923.176-.283.4-.512.674-.688v-2.139h-9.375v2.139c.273.176.498.405.673.688.176.284.264.591.264.923 0 .528-.18.972-.542 1.333a1.812 1.812 0 0 1-1.333.542c-.527 0-.972-.18-1.333-.542a1.812 1.812 0 0 1-.542-1.333c0-.332.088-.64.264-.923.176-.283.4-.512.674-.688v-2.139H9.16c-.489 0-.933.181-1.333.542-.4.362-.63.786-.689 1.275L4.883 30.86c-.02.118.005.2.074.25a.371.371 0 0 0 .22.073l25.546-.03z"/>
    </defs>
    <g fill="none" fill-rule="evenodd">
        <path fill="#FFF" d="M0 0h36v36H0z" opacity=".01"/>
        <mask id="b" fill="#fff">
            <use xlink:href="#a"/>
        </mask>
        <use fill="#000" xlink:href="#a"/>
        <g fill="#FFF" mask="url(#b)">
            <path d="M0 0h36v36H0z"/>
        </g>
    </g>
</svg>
