<svg xmlns="http://www.w3.org/2000/svg" xmlns:xlink="http://www.w3.org/1999/xlink" width="16" height="16" viewBox="0 0 16 16">
    <defs>
        <path id="a" d="M8 2a5.88 5.88 0 0 1 2.338.469 6.02 6.02 0 0 1 1.91 1.283 6.02 6.02 0 0 1 1.283 1.91c.313.73.469 1.51.469 2.338a5.88 5.88 0 0 1-.469 2.338 6.02 6.02 0 0 1-1.283 1.91 6.02 6.02 0 0 1-1.91 1.283A5.88 5.88 0 0 1 8 14a5.88 5.88 0 0 1-2.338-.469 6.02 6.02 0 0 1-1.91-1.283 6.02 6.02 0 0 1-1.283-1.91A5.88 5.88 0 0 1 2 8c0-.828.156-1.607.469-2.338a6.02 6.02 0 0 1 1.283-1.91 6.02 6.02 0 0 1 1.91-1.283A5.88 5.88 0 0 1 8 2zm0 11.262c.727 0 1.408-.139 2.045-.416a5.298 5.298 0 0 0 2.789-2.801A5.065 5.065 0 0 0 13.25 8c0-.727-.139-1.408-.416-2.045a5.348 5.348 0 0 0-1.125-1.664 5.348 5.348 0 0 0-1.664-1.125A5.064 5.064 0 0 0 8 2.75c-.727 0-1.408.139-2.045.416a5.348 5.348 0 0 0-1.664 1.125 5.348 5.348 0 0 0-1.125 1.664A5.064 5.064 0 0 0 2.75 8c0 .727.139 1.408.416 2.045a5.298 5.298 0 0 0 2.79 2.8A5.064 5.064 0 0 0 8 13.263zm-.12-8.595c.394 0 .757.1 1.09.3.333.2.598.469.795.806.197.338.295.707.295 1.107 0 .302-.088.582-.263.84-.105.16-.293.362-.564.607-.272.244-.456.433-.552.566-.175.24-.263.498-.263.774H7.342c0-.33.056-.623.17-.88.088-.196.224-.383.407-.56.07-.063.232-.196.486-.4.193-.151.329-.285.407-.4a.92.92 0 0 0 .171-.547c0-.302-.11-.56-.328-.773a1.073 1.073 0 0 0-.775-.32c-.298 0-.556.106-.775.32a1.04 1.04 0 0 0-.328.773H5.7c0-.4.098-.769.295-1.107.197-.337.462-.606.795-.806.333-.2.696-.3 1.09-.3zm-.013 7a.667.667 0 1 1 0-1.334.667.667 0 0 1 0 1.334z"/>
    </defs>
    <g fill="none" fill-rule="evenodd">
        <path fill="#FFF" fill-opacity=".01" d="M0 0h16v16H0z"/>
        <mask id="b" fill="#fff">
            <use xlink:href="#a"/>
        </mask>
        <use fill="#000" xlink:href="#a"/>
        <g fill="#FFF" mask="url(#b)">
            <path d="M0 0h16v16H0z"/>
        </g>
    </g>
</svg>
