<svg xmlns="http://www.w3.org/2000/svg" xmlns:xlink="http://www.w3.org/1999/xlink" width="36" height="36" viewBox="0 0 36 36">
    <defs>
        <path id="a" d="M9.018 27.57c.055-.237.237-.445.545-.623l.563-.325 4.944-2.34a4.27 4.27 0 0 1-1.003-1.144 7.87 7.87 0 0 1-.66-1.364 7.267 7.267 0 0 1-.36-1.355 7.263 7.263 0 0 1-.106-1.117v-2.815c0-.47.147-.939.44-1.408.293-.469.678-.891 1.153-1.267a6.188 6.188 0 0 1 1.627-.915 5.11 5.11 0 0 1 1.848-.352c.622 0 1.234.118 1.839.352.604.235 1.143.54 1.618.915.475.376.862.798 1.162 1.267.299.47.448.939.448 1.408v2.815c0 .34-.035.733-.105 1.179-.07.446-.188.9-.352 1.364-.164.463-.381.909-.651 1.337-.27.428-.598.795-.986 1.1l4.91 2.34.554.308c.307.17.486.383.538.638A13.089 13.089 0 0 0 31.125 18c0-7.249-5.876-13.125-13.125-13.125S4.875 10.751 4.875 18c0 3.774 1.593 7.176 4.143 9.57zM18 33C9.716 33 3 26.284 3 18 3 9.716 9.716 3 18 3c8.284 0 15 6.716 15 15 0 8.284-6.716 15-15 15z"/>
    </defs>
    <g fill="none" fill-rule="evenodd">
        <path fill="#FFF" d="M0 0h36v36H0z" opacity=".01"/>
        <mask id="b" fill="#fff">
            <use xlink:href="#a"/>
        </mask>
        <use fill="#979797" fill-rule="nonzero" xlink:href="#a"/>
        <g fill="#FFF" mask="url(#b)">
            <path d="M0 0h36v36H0z"/>
        </g>
    </g>
</svg>
