<svg xmlns="http://www.w3.org/2000/svg" xmlns:xlink="http://www.w3.org/1999/xlink" width="36" height="36" viewBox="0 0 36 36">
    <defs>
        <path id="a" d="M17.488 9.173h-.13l-1.558.325c-1.47.302-2.682 1.07-3.634 2.304a6.673 6.673 0 0 0-1.428 4.186v9.411h13.37v-9.411a6.673 6.673 0 0 0-1.428-4.186c-.952-1.233-2.163-2.002-3.634-2.304-.736-.217-1.255-.325-1.558-.325zM15.93 5.084c.39-.39.887-.584 1.493-.584.606 0 1.093.195 1.46.584.368.39.552.866.552 1.428v.974c1.947.476 3.559 1.503 4.835 3.083 1.277 1.579 1.915 3.385 1.915 5.419v7.399l2.661 2.726v1.363H6v-1.363l2.661-2.726v-7.399c0-2.034.638-3.84 1.915-5.42 1.276-1.579 2.888-2.606 4.835-3.082v-.974c0-.562.173-1.038.52-1.428zm4.154 23.69c0 .736-.26 1.374-.779 1.915-.519.54-1.146.811-1.882.811s-1.363-.27-1.882-.811a2.673 2.673 0 0 1-.779-1.915h5.322z"/>
    </defs>
    <g fill="none" fill-rule="evenodd">
        <path fill="#FFF" fill-opacity=".01" d="M0 0h36v36H0z"/>
        <mask id="b" fill="#fff">
            <use xlink:href="#a"/>
        </mask>
        <use fill="#000" transform="rotate(30 17.423 18)" xlink:href="#a"/>
        <g fill="#FFF" mask="url(#b)">
            <path d="M0 0h36v36H0z"/>
        </g>
    </g>
</svg>
